HIERARCHY
ROOT Hips
{
	OFFSET	0.00	0.00	0.00
	CHANNELS 6 Xposition Yposition Zposition Zrotation Xrotation Yrotation
	JOINT LeftUpLeg
	{
		OFFSET	 0.126116	-0.014019	-0.065224
		CHANNELS 3 Zrotation Xrotation Yrotation
		JOINT LeftLeg
		{
			OFFSET	 0.000000	 0.000000	 0.569914
			CHANNELS 3 Zrotation Xrotation Yrotation
			JOINT LeftFoot
			{
				OFFSET	 0.000000	 0.000000	 0.544423
				CHANNELS 3 Zrotation Xrotation Yrotation
				JOINT LeftToeBase
				{
					OFFSET	 0.000000	 0.000000	 0.207117
					CHANNELS 3 Zrotation Xrotation Yrotation
					End Site
					{
						OFFSET	 0.000000	 0.000000	 0.207117
					}
				}
			}
		}
	}
	JOINT RightUpLeg
	{
		OFFSET	-0.124023	-0.008373	-0.065224
		CHANNELS 3 Zrotation Xrotation Yrotation
		JOINT RightLeg
		{
			OFFSET	 0.000000	 0.000000	 0.570047
			CHANNELS 3 Zrotation Xrotation Yrotation
			JOINT RightFoot
			{
				OFFSET	 0.000000	 0.000000	 0.544354
				CHANNELS 3 Zrotation Xrotation Yrotation
				JOINT RightToeBase
				{
					OFFSET	 0.000000	 0.000000	 0.207540
					CHANNELS 3 Zrotation Xrotation Yrotation
					End Site
					{
						OFFSET	 0.000000	 0.000000	 0.207540
					}
				}
			}
		}
	}
	JOINT Spine
	{
		OFFSET	 0.000184	-0.007763	 0.117403
		CHANNELS 3 Zrotation Xrotation Yrotation
		JOINT Spine1
		{
			OFFSET	 0.000000	 0.000000	 0.137269
			CHANNELS 3 Zrotation Xrotation Yrotation
			JOINT Spine2
			{
				OFFSET	 0.000000	 0.000000	 0.156879
				CHANNELS 3 Zrotation Xrotation Yrotation
				JOINT LeftShoulder
				{
					OFFSET	 0.080501	-0.002496	 0.160144
					CHANNELS 3 Zrotation Xrotation Yrotation
					JOINT LeftArm
					{
						OFFSET	 0.000000	 0.000000	 0.164363
						CHANNELS 3 Zrotation Xrotation Yrotation
						JOINT LeftForeArm
						{
							OFFSET	 0.000000	 0.000000	 0.364576
							CHANNELS 3 Zrotation Xrotation Yrotation
							JOINT LeftHand
							{
								OFFSET	 0.000000	 0.000000	 0.360812
								CHANNELS 3 Zrotation Xrotation Yrotation
								JOINT LeftHandIndex1
								{
									OFFSET	 0.000000	 0.000000	 0.086006
									CHANNELS 3 Zrotation Xrotation Yrotation
									JOINT LeftHandIndex2
									{
										OFFSET	 0.000000	 0.000000	 0.047236
										CHANNELS 3 Zrotation Xrotation Yrotation
										JOINT LeftHandIndex3
										{
											OFFSET	-0.004284	-0.000551	 0.038166
											CHANNELS 3 Zrotation Xrotation Yrotation
											End Site
											{
												OFFSET	-0.004284	-0.000551	 0.038166
											}
										}
									}
								}
							}
						}
					}
				}
				JOINT Neck
				{
					OFFSET	 0.000000	 0.000000	 0.176489
					CHANNELS 3 Zrotation Xrotation Yrotation
					JOINT Head
					{
						OFFSET	 0.000000	-0.001747	 0.077940
						CHANNELS 3 Zrotation Xrotation Yrotation
						End Site
						{
							OFFSET	 0.000000	-0.001747	 0.077940
						}
					}
				}
				JOINT RightShoulder
				{
					OFFSET	-0.080363	 0.000306	 0.159706
					CHANNELS 3 Zrotation Xrotation Yrotation
					JOINT RightArm
					{
						OFFSET	 0.000000	 0.000000	 0.164196
						CHANNELS 3 Zrotation Xrotation Yrotation
						JOINT RightForeArm
						{
							OFFSET	 0.000000	 0.000000	 0.365611
							CHANNELS 3 Zrotation Xrotation Yrotation
							JOINT RightHand
							{
								OFFSET	 0.000000	 0.000000	 0.360648
								CHANNELS 3 Zrotation Xrotation Yrotation
								JOINT RightHandIndex1
								{
									OFFSET	 0.000000	 0.000000	 0.069977
									CHANNELS 3 Zrotation Xrotation Yrotation
									JOINT RightHandIndex2
									{
										OFFSET	 0.000000	 0.000000	 0.052305
										CHANNELS 3 Zrotation Xrotation Yrotation
										JOINT RightHandIndex3
										{
											OFFSET	 0.009002	-0.000782	 0.042196
											CHANNELS 3 Zrotation Xrotation Yrotation
											End Site
											{
												OFFSET	 0.009002	-0.000782	 0.042196
											}
										}
									}
								}
							}
						}
					}
				}
			}
		}
	}
}
MOTION
Frames:    7
Frame Time: 0.03333334
 6.918640	 4.049002	-0.175312	-173.971300	-2.090589	 0.056936	 6.430063	-1.904710	-178.408400	-2.550009	-35.266090	 1.203292	 15.997640	 89.899130	-15.033150	-2.376327	 30.394910	-0.042558	 1.645638	-29.961130	 179.482400	 20.171170	-72.084480	 23.608510	 179.011000	 89.096040	-171.644300	 2.378522	 29.685560	 0.028303	-7.863454	 4.817461	 1.540037	-12.223990	-0.755266	 0.490949	-13.325670	-2.883586	-1.219991	-91.794770	 78.138820	 178.891400	 35.639240	 63.427700	-47.622220	-17.153350	 2.001742	-37.337230	 0.533267	-12.631620	-5.961668	-3.812334	 37.924440	-2.927599	-2.450526	 36.184240	 0.754587	-1.378229	 35.397820	-2.634230	-0.321361	 4.052731	-1.921060	-2.932830	-12.030180	-2.269912	 89.792310	 78.688140	 179.517300	-41.798680	 71.372760	 43.739640	 10.265840	-1.844167	 34.165950	-9.147455	-13.464230	 10.351200	 6.437017	 35.671460	-0.771858	 2.830251	 35.756010	-7.813440	-2.350882	 35.473990	 5.254307
 6.914705	 4.071249	-0.176703	-173.864900	-1.935344	-0.257432	 6.173536	-0.183615	-177.920300	-2.822425	-33.860510	 1.024104	 95.018900	 89.972030	-94.305130	-2.376538	 30.357820	-0.041724	 1.839619	-31.340770	 179.619600	 16.849640	-69.162630	 20.148630	-178.222100	 88.780990	-174.275900	 2.377833	 29.821080	 0.031290	-7.905045	 4.774683	 1.892341	-12.295670	-0.767570	 0.467160	-13.330850	-2.899065	-1.222266	-91.784510	 78.361860	 178.840400	 35.383370	 62.856980	-48.137870	-16.954150	 2.050716	-38.241940	 0.606365	-12.652440	-5.968430	-3.812334	 37.924440	-2.927599	-2.450526	 36.184240	 0.754587	-1.378229	 35.397820	-2.634230	-0.338313	 4.103018	-2.145933	-2.870979	-12.186640	-2.161880	 89.787960	 78.467250	 179.486600	-41.719070	 71.427510	 43.307170	 10.379140	-1.768505	 34.755610	-8.974658	-13.485660	 10.360610	 6.437017	 35.671460	-0.771858	 2.830251	 35.756010	-7.813440	-2.350882	 35.473990	 5.254307
 6.910841	 4.094027	-0.177864	-173.763100	-1.764449	-0.524572	 6.017002	 1.745981	-177.484000	-3.044272	-31.990350	 0.945986	 19.477710	 89.846770	-18.870200	-2.375979	 30.461110	-0.044022	 1.970693	-32.519410	 179.732200	 14.158740	-65.838170	 17.219480	-175.497000	 88.894650	-176.862800	 2.377721	 29.844010	 0.031802	-7.937376	 4.715515	 2.198392	-12.358010	-0.769920	 0.443388	-13.340110	-2.901672	-1.223426	-91.774510	 78.557270	 178.795900	 35.111640	 62.321220	-48.622260	-16.813110	 2.112932	-39.052530	 0.644837	-12.674310	-5.975108	-3.812334	 37.924440	-2.927599	-2.450526	 36.184240	 0.754587	-1.378229	 35.397820	-2.634230	-0.357772	 4.167131	-2.354342	-2.824389	-12.336050	-2.097140	 89.783680	 78.273250	 179.465400	-41.664280	 71.490660	 42.956520	 10.492320	-1.690778	 35.226870	-8.828852	-13.507800	 10.369320	 6.437017	 35.671460	-0.771858	 2.830251	 35.756010	-7.813440	-2.350882	 35.473990	 5.254307
 6.907081	 4.117425	-0.178858	-173.674800	-1.577146	-0.703730	 5.972115	 3.887578	-177.164000	-3.264452	-29.654280	 0.931687	 12.428740	 89.656220	-11.836060	-2.373900	 30.837590	-0.052426	 2.075470	-33.509850	 179.770400	 12.042350	-62.178630	 14.797710	-171.107800	 89.103210	 178.910600	 2.378927	 29.604550	 0.026525	-7.953242	 4.643815	 2.410117	-12.396590	-0.764985	 0.423995	-13.347270	-2.895011	-1.223313	-91.766750	 78.700400	 178.767100	 34.893660	 61.798010	-49.118760	-16.765490	 2.238532	-39.758400	 0.556052	-12.696980	-5.981880	-3.812334	 37.924440	-2.927599	-2.450526	 36.184240	 0.754587	-1.378229	 35.397820	-2.634230	-0.368691	 4.237450	-2.533995	-2.795939	-12.469550	-2.067189	 89.780460	 78.132420	 179.451900	-41.621600	 71.566770	 42.676480	 10.606070	-1.614249	 35.562320	-8.716963	-13.530750	 10.377410	 6.437017	 35.671460	-0.771858	 2.830251	 35.756010	-7.813440	-2.350882	 35.473990	 5.254307
 6.903358	 4.142642	-0.179788	-173.597000	-1.347423	-0.825190	 6.120920	 6.359466	-177.008400	-3.443566	-26.713110	 1.022591	 8.910993	 89.231530	-8.125031	-2.370182	 31.483180	-0.066945	 2.216635	-34.363970	 179.745800	 10.323260	-58.087630	 12.738510	-163.057500	 89.322470	 171.070000	 2.383188	 28.715720	 0.007085	-7.943130	 4.544131	 2.549443	-12.405330	-0.775242	 0.409627	-13.339690	-2.881173	-1.221006	-91.761620	 78.790500	 178.756700	 34.701780	 61.293560	-49.607820	-16.757880	 2.390418	-40.371230	 0.420886	-12.745850	-5.985777	-3.812334	 37.924440	-2.927599	-2.450526	 36.184240	 0.754587	-1.378229	 35.397820	-2.634230	-0.355874	 4.308398	-2.700400	-2.773289	-12.585540	-2.055634	 89.778300	 78.042190	 179.447400	-41.573150	 71.665500	 42.443810	 10.726380	-1.539327	 35.745740	-8.645039	-13.556030	 10.385080	 6.437017	 35.671460	-0.771858	 2.830251	 35.756010	-7.813440	-2.350882	 35.473990	 5.254307
 6.900193	 4.166345	-0.180585	-173.529500	-1.117789	-0.908427	 6.473658	 8.810196	-177.026400	-3.520115	-23.603930	 1.203145	 6.740454	 88.441030	-5.487246	-2.365454	 32.253400	-0.084465	 2.359870	-34.946980	 179.696000	 9.016809	-54.239010	 11.116170	-150.111100	 89.472140	 158.288400	 2.386999	 27.843710	-0.011748	-7.910113	 4.421465	 2.638569	-12.385120	-0.803706	 0.403458	-13.310990	-2.864176	-1.216388	-91.758310	 78.849310	 178.754200	 34.543980	 60.903850	-50.006000	-16.750470	 2.502752	-40.804950	 0.338927	-12.767080	-5.992176	-3.812334	 37.924440	-2.927599	-2.450526	 36.184240	 0.754587	-1.378229	 35.397820	-2.634230	-0.318889	 4.362141	-2.844049	-2.743122	-12.663530	-2.045383	 89.777000	 77.983890	 179.451400	-41.513160	 71.776460	 42.274070	 10.835970	-1.478918	 35.743150	-8.627882	-13.580100	 10.391320	 6.437017	 35.671460	-0.771858	 2.830251	 35.756010	-7.813440	-2.350882	 35.473990	 5.254307
 6.896877	 4.190775	-0.181361	-173.452000	-0.893430	-1.006584	 6.953483	 11.775930	-176.948700	-3.697125	-19.407330	 1.365371	 4.986731	 87.084690	-3.072463	-2.359173	 33.204480	-0.106412	 2.614690	-35.255290	 179.700500	 7.719781	-50.430830	 9.623837	-144.597800	 89.571130	 152.798600	 2.388767	 27.408710	-0.021064	-7.866205	 4.270278	 2.726057	-12.346470	-0.838932	 0.407272	-13.263400	-2.846616	-1.209973	-91.755520	 78.897540	 178.749100	 34.397150	 60.613830	-50.351960	-16.787450	 2.597405	-41.104210	 0.279067	-12.789030	-5.998364	-3.812334	 37.924440	-2.927599	-2.450526	 36.184240	 0.754587	-1.378229	 35.397820	-2.634230	-0.267183	 4.396998	-2.974547	-2.698235	-12.707440	-2.022169	 89.776020	 77.936510	 179.456500	-41.444800	 71.904560	 42.151240	 10.935230	-1.429013	 35.562120	-8.664248	-13.605050	 10.396710	 6.437017	 35.671460	-0.771858	 2.830251	 35.756010	-7.813440	-2.350882	 35.473990	 5.254307
